<svg xmlns="http://www.w3.org/2000/svg" width="550" height="1093" viewBox="0 0 550 1093">
  <rect width="550" height="1093" rx="24" fill="#9bc4d6"/>
  <g fill="none" stroke="#5c677a" stroke-width="3">
    <rect x="180" y="190" width="190" height="740" rx="26" fill="#3d4559"/>
    <rect x="175" y="230" width="200" height="470" rx="70" fill="#c3e218" stroke="#4b5467"/>
    <rect x="175" y="230" width="200" height="120" rx="16" fill="#8cb0c0"/>
    <rect x="183" y="708" width="184" height="210" rx="12" fill="#4b5467"/>
    <rect x="222" y="246" width="106" height="90" rx="10" fill="#7ea5b5"/>
    <rect x="224" y="360" width="102" height="180" rx="8" fill="#7ea5b5"/>
    <rect x="222" y="560" width="106" height="125" rx="8" fill="#7ea5b5"/>
  </g>
  <g stroke="#7a8394" stroke-width="2" fill="none" opacity="0.8">
    <line x1="205" y1="280" x2="345" y2="280"/>
    <line x1="205" y1="450" x2="345" y2="450"/>
    <line x1="205" y1="615" x2="345" y2="615"/>
  </g>
  <g fill="#ced4de" stroke="#5b6476" stroke-width="2">
    <rect x="194" y="890" width="64" height="36" rx="8"/>
    <rect x="292" y="890" width="64" height="36" rx="8"/>
  </g>
  <g fill="#f2f5f9" opacity="0.75">
    <circle cx="252" cy="260" r="16"/>
    <circle cx="298" cy="260" r="16"/>
  </g>
</svg>
